/* XPM */
static char *image[] = {
"48 48 660 2",
"   c None",
"00 c #70c123",
"10 c #81d231",
"20 c #73c325",
"30 c #519e08",
"40 c #83d236",
"50 c #80d231",
"60 c #478907",
"70 c #50970c",
"80 c #509c09",
"90 c #4f9a07",
":0 c #519c09",
";0 c #549f0e",
"A0 c #519d09",
"B0 c #4e9906",
"C0 c #519c08",
"D0 c #539d0b",
"E0 c #539b0b",
"F0 c #519a0b",
"G0 c #4b9107",
"H0 c #8bd542",
"I0 c #85d339",
"J0 c #4e960b",
"K0 c #67ac24",
"L0 c #9ed768",
"M0 c #b1e480",
"N0 c #bcea8e",
"O0 c #c4f098",
"P0 c #c8f29f",
"Q0 c #c5f19b",
"R0 c #c1f094",
"S0 c #b5e882",
"T0 c #abe375",
"U0 c #9fdb67",
"V0 c #93d357",
"W0 c #87c948",
"X0 c #76bc35",
"Y0 c #66ae21",
"Z0 c #58a111",
"a0 c #91d74e",
"b0 c #a4e860",
"c0 c #8bd546",
"d0 c #4f9a0b",
"e0 c #61a81d",
"f0 c #98d35e",
"g0 c #bded90",
"h0 c #c2f095",
"i0 c #b2ec7a",
"j0 c #a4e963",
"k0 c #a6ea63",
"l0 c #aaeb6d",
"m0 c #b1eb77",
"n0 c #afeb76",
"o0 c #529d09",
"p0 c #54a00d",
"q0 c #9bd561",
"r0 c #c2ef94",
"s0 c #b4ed7d",
"t0 c #a6ea66",
"u0 c #a6ea64",
"v0 c #9ce752",
"w0 c #b3ec7a",
"x0 c #519c0a",
"y0 c #458808",
"z0 c #5fa61b",
"01 c #b6e885",
"11 c #b6ed81",
"21 c #b5ed7e",
"31 c #5ea719",
"41 c #59a314",
"51 c #b8ea88",
"61 c #a3e95e",
"71 c #9ce554",
"81 c #9be653",
"91 c #7dc03f",
":1 c #509b09",
";1 c #a6dc71",
"A1 c #abeb6c",
"B1 c #9ee759",
"C1 c #9ce455",
"D1 c #acea6e",
"E1 c #9cd664",
"F1 c #529b0b",
"G1 c #6bb02b",
"H1 c #beef8d",
"I1 c #9ee755",
"J1 c #a7e968",
"K1 c #a3e266",
"L1 c #9dd964",
"M1 c #86a749",
"N1 c #616829",
"O1 c #84b556",
"P1 c #a7e56b",
"Q1 c #749f49",
"R1 c #709b46",
"S1 c #6f9b45",
"T1 c #6f9b44",
"U1 c #6e9a42",
"V1 c #7fb44b",
"W1 c #9de459",
"X1 c #9de657",
"Y1 c #b4e782",
"Z1 c #529d0a",
"a1 c #509a0a",
"b1 c #a1d96a",
"c1 c #9de15a",
"d1 c #95d557",
"e1 c #8ec854",
"f1 c #88c053",
"g1 c #85b24d",
"h1 c #919c39",
"i1 c #a28d29",
"j1 c #6c4c0f",
"k1 c #000000",
"l1 c #666a29",
"m1 c #a8ea67",
"n1 c #a3e960",
"o1 c #a1e65c",
"p1 c #9de45a",
"q1 c #c1ef93",
"r1 c #519d0a",
"s1 c #519b09",
"t1 c #beed8f",
"u1 c #9fe659",
"v1 c #97df52",
"w1 c #93d651",
"x1 c #8bca4f",
"y1 c #88c34e",
"z1 c #85be4e",
"02 c #79ad54",
"12 c #9d772d",
"22 c #bb7d16",
"32 c #b28833",
"42 c #c1aa62",
"52 c #cdc17c",
"62 c #4b3309",
"72 c #a5d767",
"82 c #b0ec75",
"92 c #a3e860",
":2 c #9ee35c",
";2 c #a0e75b",
"A2 c #bcee8a",
"B2 c #68ae25",
"C2 c #5ea51b",
"D2 c #b7e688",
"E2 c #8ccd4e",
"F2 c #85bf4d",
"G2 c #557b3f",
"H2 c #265180",
"I2 c #748493",
"J2 c #f9f0b8",
"K2 c #bba45c",
"L2 c #a48827",
"M2 c #759c4e",
"N2 c #89b65d",
"O2 c #ade675",
"P2 c #77a050",
"Q2 c #749c4d",
"R2 c #739c4b",
"S2 c #83b653",
"T2 c #a1e45f",
"U2 c #9fe45c",
"V2 c #b5ed7f",
"W2 c #81c242",
"X2 c #74b637",
"Y2 c #aee27b",
"Z2 c #8dce4e",
"a2 c #8bc84f",
"b2 c #7bb456",
"c2 c #2a5683",
"d2 c #ccd4bc",
"e2 c #fef7bd",
"f2 c #fdf6bc",
"g2 c #ba8622",
"h2 c #b3d25e",
"i2 c #b2ed79",
"j2 c #b2ed7a",
"k2 c #9fe25e",
"l2 c #a1e85e",
"m2 c #afeb74",
"n2 c #92cf57",
"o2 c #509b07",
"p2 c #89c64e",
"q2 c #a8e070",
"r2 c #91d74d",
"s2 c #8ecf4e",
"t2 c #87c559",
"u2 c #2d5a84",
"v2 c #5379ab",
"w2 c #6590bf",
"x2 c #c3d0c2",
"y2 c #c6bc8f",
"z2 c #b48626",
"03 c #b1ed78",
"13 c #a9ea69",
"23 c #a6e966",
"33 c #9fe060",
"43 c #a2e660",
"53 c #aaea6c",
"63 c #a0d968",
"73 c #53a00b",
"83 c #509d07",
"93 c #8fca56",
":3 c #a7e26e",
";3 c #96df50",
"A3 c #9ae253",
"B3 c #92d75d",
"C3 c #2d5c84",
"D3 c #719bcb",
"E3 c #677276",
"F3 c #99a85d",
"G3 c #afec74",
"H3 c #b0ec76",
"I3 c #aaeb6b",
"J3 c #a2e363",
"K3 c #a0e360",
"L3 c #ace278",
"M3 c #539f0c",
"N3 c #95d25d",
"O3 c #8dd35b",
"P3 c #6e98c9",
"Q3 c #709bca",
"R3 c #75af86",
"S3 c #aeec73",
"T3 c #aeec72",
"U3 c #aceb6f",
"V3 c #a5e566",
"W3 c #9bdb5f",
"X3 c #6f9d43",
"Y3 c #9ee35b",
"Z3 c #6d9d3e",
"a3 c #8cce4c",
"b3 c #b4e882",
"c3 c #9bd661",
"d3 c #abea6c",
"e3 c #8cd359",
"f3 c #2c5984",
"g3 c #6f9ac9",
"h3 c #3a6ba3",
"i3 c #5f9277",
"j3 c #a5e468",
"k3 c #749f4a",
"l3 c #729c49",
"m3 c #729c4a",
"n3 c #86b657",
"o3 c #aceb70",
"p3 c #aceb6e",
"q3 c #a5e667",
"r3 c #9edd60",
"s3 c #a5e763",
"t3 c #baec89",
"u3 c #9ad561",
"v3 c #99d66f",
"w3 c #2c5983",
"x3 c #537aab",
"y3 c #6e9ac9",
"z3 c #73ae83",
"04 c #a8ea69",
"14 c #abeb6e",
"24 c #abeb6d",
"34 c #aaeb6c",
"44 c #aaea6b",
"54 c #a8e868",
"64 c #9ddc61",
"74 c #a3e663",
"84 c #a4e960",
"94 c #a2e85e",
":4 c #beef8f",
";4 c #87c261",
"A4 c #2d5986",
"B4 c #7297c4",
"C4 c #6e99c9",
"D4 c #3c6ea4",
"E4 c #55856f",
"F4 c #a2e463",
"G4 c #719f46",
"H4 c #82b550",
"I4 c #a5e467",
"J4 c #739f48",
"K4 c #719b47",
"L4 c #83b552",
"M4 c #a6e767",
"N4 c #9ddb61",
"O4 c #a1e462",
"P4 c #7cb348",
"Q4 c #6c9d3c",
"R4 c #689a37",
"S4 c #8fd64a",
"T4 c #beef8e",
"U4 c #4e9b06",
"V4 c #498c20",
"W4 c #2b5784",
"X4 c #527aab",
"Y4 c #6d99c9",
"Z4 c #71ae7e",
"a4 c #a7ea66",
"b4 c #a7ea67",
"c4 c #a8ea68",
"d4 c #a5e766",
"e4 c #9cda5f",
"f4 c #a1e362",
"g4 c #9ae751",
"h4 c #beee8e",
"i4 c #4f9a06",
"j4 c #235082",
"k4 c #5279aa",
"l4 c #7397c4",
"m4 c #6d98c9",
"n4 c #6d99c8",
"o4 c #6fae7c",
"p4 c #a6ea65",
"q4 c #a3e563",
"r4 c #9ad95d",
"s4 c #a0e260",
"t4 c #a5e962",
"u4 c #a0e859",
"v4 c #b8ea86",
"w4 c #509c08",
"x4 c #5278aa",
"y4 c #6c98c8",
"z4 c #3a6ba2",
"05 c #51826a",
"15 c #69993a",
"25 c #7bb345",
"35 c #9de359",
"45 c #6e9d3f",
"55 c #7eb44a",
"65 c #a0e45f",
"75 c #6f9e42",
"85 c #7fb44c",
"95 c #9fe160",
":5 c #97d65a",
";5 c #a0e460",
"A5 c #a4e961",
"B5 c #9fe45e",
"C5 c #6f9e40",
"D5 c #6b9a3e",
"E5 c #6b9a3c",
"F5 c #6a9a3b",
"G5 c #689938",
"H5 c #699c37",
"I5 c #95de4c",
"J5 c #a0e75a",
"K5 c #afe57b",
"L5 c #6b98c8",
"M5 c #6dad78",
"N5 c #a2e75f",
"O5 c #98d95a",
"P5 c #96d758",
"Q5 c #a0e55e",
"R5 c #a3e95f",
"S5 c #a2e95e",
"T5 c #9fe859",
"U5 c #a5e963",
"V5 c #a1db68",
"W5 c #214c88",
"X5 c #4f76aa",
"Y5 c #7498c5",
"Z5 c #6c97c9",
"a5 c #6b97c8",
"b5 c #6cad76",
"c5 c #9be059",
"d5 c #98da58",
"e5 c #a1e75d",
"f5 c #a2e85d",
"g5 c #a1e85d",
"h5 c #a1e85c",
"i5 c #a0e85b",
"j5 c #adeb70",
"k5 c #8ccd4f",
"l5 c #4f9e07",
"m5 c #2e3740",
"n5 c #4e74a8",
"o5 c #7599c5",
"p5 c #6a97c8",
"q5 c #3c6ea3",
"r5 c #6aac74",
"s5 c #96e14d",
"t5 c #699d37",
"u5 c #78b240",
"v5 c #9ee756",
"w5 c #9ce356",
"x5 c #93d752",
"y5 c #93d553",
"z5 c #a0e85a",
"06 c #9ce358",
"16 c #6d9d3d",
"26 c #699a3b",
"36 c #699a3a",
"46 c #7ab243",
"56 c #9ae254",
"66 c #679937",
"76 c #679936",
"86 c #77b23e",
"96 c #95e14c",
":6 c #6ea736",
";6 c #b8ee84",
"A6 c #6ab126",
"B6 c #a6aaab",
"C6 c #3e4446",
"D6 c #5f758f",
"E6 c #5684ba",
"F6 c #5c8abf",
"G6 c #6a97c7",
"H6 c #3d6ea4",
"I6 c #69ac72",
"J6 c #93d950",
"K6 c #8ed14e",
"L6 c #97dd52",
"M6 c #9fe858",
"N6 c #9de756",
"O6 c #9be651",
"P6 c #b5e982",
"Q6 c #2e373e",
"R6 c #949695",
"S6 c #959898",
"T6 c #333b3f",
"U6 c #5a84b6",
"V6 c #6c97c8",
"W6 c #6996c7",
"X6 c #3b6ca3",
"Y6 c #76ae88",
"Z6 c #90df42",
"a6 c #639830",
"b6 c #75b13b",
"c6 c #98e54e",
"d6 c #93db4c",
"e6 c #8cd049",
"f6 c #92da4d",
"g6 c #9be552",
"h6 c #9ce754",
"i6 c #9de754",
"j6 c #9de755",
"k6 c #99e253",
"l6 c #6b9d3a",
"m6 c #79b241",
"n6 c #98e252",
"o6 c #6a9d38",
"p6 c #77b23f",
"q6 c #97e24f",
"r6 c #689c36",
"s6 c #659834",
"t6 c #659832",
"u6 c #73b037",
"v6 c #afec75",
"w6 c #8aca4d",
"x6 c #2f383f",
"y6 c #616565",
"z6 c #8d8f8b",
"07 c #d5d6d4",
"17 c #737777",
"27 c #474f53",
"37 c #5e7693",
"47 c #3a699e",
"57 c #5f9a73",
"67 c #93df49",
"77 c #8bd245",
"87 c #8ed648",
"97 c #97e34d",
":7 c #9be752",
";7 c #9be751",
"A7 c #9ae651",
"B7 c #99e64d",
"C7 c #b5e981",
"D7 c #54a00c",
"E7 c #2f3942",
"F7 c #7e7f7e",
"G7 c #7b7d79",
"H7 c #82847f",
"I7 c #d3d4d1",
"J7 c #d7d7d6",
"K7 c #959694",
"L7 c #47705f",
"M7 c #8dce4f",
"N7 c #a7ea65",
"O7 c #93e344",
"P7 c #8bd642",
"Q7 c #88d042",
"R7 c #91de48",
"S7 c #9ae650",
"T7 c #9ae64f",
"U7 c #99e64f",
"V7 c #99e64e",
"W7 c #99e54e",
"X7 c #b9ee86",
"Y7 c #73b731",
"Z7 c #529f07",
"a7 c #2e4058",
"b7 c #484f51",
"c7 c #878884",
"d7 c #838580",
"e7 c #7e807b",
"f7 c #6f7373",
"g7 c #818e9b",
"h7 c #539f0a",
"i7 c #95d558",
"j7 c #a3e85e",
"k7 c #8fe040",
"l7 c #86cf3d",
"m7 c #8cd840",
"n7 c #93e446",
"o7 c #92e046",
"p7 c #669b32",
"q7 c #649831",
"r7 c #649832",
"s7 c #72ae39",
"t7 c #75b23b",
"u7 c #94e14b",
"v7 c #679c34",
"w7 c #659833",
"x7 c #87cd44",
"y7 c #98e64c",
"z7 c #97e64b",
"08 c #97e54b",
"18 c #9ce652",
"28 c #b8ee85",
"38 c #83c542",
"48 c #519e0a",
"58 c #3c4b5a",
"68 c #4e5354",
"78 c #6b6e6a",
"88 c #555959",
"98 c #4a5e72",
":8 c #539f09",
";8 c #a0dc66",
"A8 c #9be753",
"B8 c #8dde3d",
"C8 c #85d23a",
"D8 c #8cdd3f",
"E8 c #96e54a",
"F8 c #97e54a",
"G8 c #96e549",
"H8 c #95e548",
"I8 c #96e548",
"J8 c #a9ea6a",
"K8 c #4d5b69",
"L8 c #4a5e74",
"M8 c #519d08",
"N8 c #aee678",
"O8 c #92e543",
"P8 c #8adf39",
"Q8 c #85d537",
"R8 c #8ddf3c",
"S8 c #92e441",
"T8 c #90e042",
"U8 c #649b2f",
"V8 c #62982e",
"W8 c #81c73d",
"X8 c #659b30",
"Y8 c #73b137",
"Z8 c #94e546",
"a8 c #9ee757",
"b8 c #aeeb72",
"c8 c #9bd75f",
"d8 c #5ca415",
"e8 c #509d0a",
"f8 c #57a011",
"g8 c #b5ed80",
"h8 c #89df36",
"i8 c #85d835",
"j8 c #8be038",
"k8 c #91e440",
"l8 c #91e441",
"m8 c #92e442",
"n8 c #92e443",
"o8 c #93e444",
"p8 c #94e544",
"q8 c #94e545",
"r8 c #98e64d",
"s8 c #a7e966",
"t8 c #b0ec77",
"u8 c #bbee88",
"v8 c #aee578",
"w8 c #87c747",
"x8 c #58a212",
"y8 c #78bc37",
"z8 c #a9e96c",
"09 c #86db32",
"19 c #89df34",
"29 c #8ce237",
"39 c #8ce338",
"49 c #8de33a",
"59 c #8ee33b",
"69 c #8fe33c",
"79 c #8fe33d",
"89 c #90e43e",
"99 c #90e43f",
":9 c #95e547",
";9 c #9be652",
"A9 c #a1e85b",
"B9 c #a6e964",
"C9 c #abea6e",
"D9 c #b1ec77",
"E9 c #bbee8a",
"F9 c #b7eb84",
"G9 c #a9e271",
"H9 c #96d45a",
"I9 c #7abd3a",
"J9 c #5aa514",
"K9 c #519d07",
"L9 c #509e07",
"M9 c #9ad75e",
"N9 c #9ae452",
"O9 c #88df33",
"P9 c #8ae234",
"Q9 c #8ae235",
"R9 c #8be237",
"S9 c #93e544",
"T9 c #9ce753",
"U9 c #a4e962",
"V9 c #adeb71",
"W9 c #baee88",
"X9 c #b7ed83",
"Y9 c #ade676",
"Z9 c #a1de67",
"a9 c #96d559",
"b9 c #89ca49",
"c9 c #79be38",
"d9 c #6ab125",
"e9 c #57a110",
"f9 c #529f0a",
"g9 c #5aa216",
"h9 c #b4eb7e",
"i9 c #8ce23a",
"j9 c #93e443",
"k9 c #9fe759",
"l9 c #abea6d",
"m9 c #b6ed80",
"n9 c #afe977",
"o9 c #9fdc64",
"p9 c #8dcf4e",
"q9 c #7bc03a",
"r9 c #68b023",
"s9 c #56a10f",
"t9 c #4f9b07",
"u9 c #519e09",
"v9 c #539f0b",
"w9 c #54a00a",
"x9 c #4e9a06",
"y9 c #8fcd54",
"z9 c #b3ec7c",
"0: c #b1ec78",
"1: c #b0e878",
"2: c #94d454",
"3: c #79bf37",
"4: c #5ba515",
"5: c #53a009",
"6: c #5ba417",
"7: c #afe77a",
"8: c #93d355",
"9: c #6db328",
":: c #509d08",
";: c #529e09",
"A: c #509e08",
"B: c #5da815",
"C: c #529e0a",
"D: c #529f09",
"E: c #4f9c07",
"F: c #4f9c08",
"G: c #4e9c06",
"                                                                                                ",
"                                                                                                ",
"                                                                                                ",
"                                                                                        G:      ",
"                                                                                    F:E:F:      ",
"                                                                                D:C:B:A:        ",
"                                                                          ;:::9:8:7:6:          ",
"                                                                C:5:E:4:3:2:1:0:z9y9D:          ",
"                                                x9w9v9u9t9s9r9q9p9o9n9m9l9k9j9i9h9g9            ",
"                                    f9f9E:e9d9c9b9a9Z9Y9X9W9z9V9U9T9S9R9Q9P9O9N9M9u9            ",
"                            L9K9J9I9H9G9F9E9m9D9C9B9A9;9:999897969594939291909z8y8              ",
"                        C:x8w8v8u8t8s8k9r8q8q8q8p8S9o8j9n8m8l8k899796959j8i8h8g8f8              ",
"                    e8d8c8W9b8a8q8q8Z8:9:9:9:9:9Y8X8W8V8U8T8j9m8S8k889R8Q8P8O8N8M8    L8K8      ",
"                  f9y8F9J8I8q8Z8:9H8G8G8F8F8F8F8F8E8G8G8H8:9Z8q8j9m8D8C8B869A8;8:8  9888786858  ",
"                48382818q8Z8:9G8E808z7y7x7w7v7u7t7v7s7r7q7p7o7:9n7m7l7k7k889j7i7h7g7f7e7d7c7b7a7",
"              Z7Y7X7W7q8:9I8F8z7y7r8V7U7T7T7S7S7T7T7V7V7r8y7z7R7Q7P7O7o8m8k8N7M7L7K7J7I7H7G7F7E7",
"              D7C7a8Z8H8G8z7y7B7U7S7A7;7:7:7:7:7:7:7;7S7S797877767G8:9Z8o8m8l9574737271707z6y6x6",
"            D:w6v6Z8u6q7t6w7s6r6q6p6o6n6m6l6k6j6j6i6h6g6f6e6d6c6b6r7a6a6U8Z6Y6X6W6V6U6T6S6R6Q6  ",
"            ::P6j6I8F8y7V7T7O6:7h6j6N6a8a8M6M6M6M6a8L6K6J6N9:7O6T7B7y7F8H8I6H6G6V6F6E6D6C6B6    ",
"            A6;6H8:6v796867666l6564636261606z5z506y5x5w5a8v5i6u5t5s5V7y7r5q5p5V6F6E6o5n5m5      ",
"          l5k5j5G8y7V7S7:7h6j6a8M6z5i5h5g5f5e5d58:c5h5i5z5M6a8j6T9;7T7b5q5a5Z5F6E6Y5X5W5        ",
"          w9V5U5z7B7T7:7h6N6a8T5i5h5f5S5R5Q5P5O5N5R5S5f5h5z5T5a8j6T9M5q5L5Z5F6E6Y5X5W5          ",
"          C:K5J5r8I5H566G536F5E5D5C5B5A5;5:595U585756555D54535251505z4y4Z5F6E6Y5x4W5            ",
"          w4v4i6V7S7T9j6a8u4A9f5R5A5t4s4r4q4N7N7p4B9U5t4A5R5f5A9o4q5n4m4F6E6l4k4j4              ",
"          i4h4g4T7:7h6v5T5A9f5R5A5U5f4e4d4c4c4c4c4b4a4B9U5A5R5Z4q5Y4m4F6E6l4X4W4V4              ",
"          U4T4:7S4R4G5Q406P4C565U5O4N4M4J8L4K4K4J4I4H4G4F485E4D4C4m4F6E6B4k4A4;4h7              ",
"          U4:4A8;7h6v5T5A99484U574645444342414142434J804b4z3D4y3m4F6E6B4x3w3v3u3v9              ",
"          F:t3a8:7j6a8z5h5R5U9s3r3q34424p3o3j5n3m3l3k3j3i3h3g3m4F6E6B4x3f3e3d3c3w9              ",
"          C:b3h5T9a336Z3Y355X3W3V3J824U3V9T3S3S3T3j5p3R3D4Q3P3F6E6B4x3f3O3:7o3N348              ",
"          M3L3U9T9v5M6A994A5K3J304I314j5S3v6H3H3G3T3F3E3D3m4F6E6B4x3C3B3A3;3:39383              ",
"          736353T9v5T5h5S54333231334U3V9G3H30303H3G3z2y2x2w2E6B4v2u2t2s2K6r2q2p2                ",
"          o2n2m2T9v5T5h5l2k2s3b41334U3T3G3D9j2i2t8h2g2f2e2d2B4x3c2b2a2Z2K6r2Y2X2                ",
"            W2V2T9v5T5A9U2T2B9a413S2l3R2Q2P2O2N2M2L2K2e2e2J2I2H2G2F2a2E2K6r2D2C2                ",
"            B2A2T9N6M6;2:292U5a4c4I314j5T3G382827262524232221202z1y1x1w1v1u1t1s1                ",
"            r1q1i6j6M6p1o1n1t4p4m1J834p3j5T3T3T3l1k1j1i1h1g1f1e1d1c1z5a8j6o3b1a1                ",
"            Z1Y1n1i6X1W1h5R5V1U1T1S1R1Q1P1U3O1m3N1M1L1K1J1a4U5A5S5h5u4a8I1H1G1                  ",
"            F1E1D1h6C1B1A994n1t4p4b4c4J834242424A1I3J8c4a4B9t4n1f5i5M6N60:;1:1                  ",
"              910:8171a8z5h561A5U5p4a4c413J8J8J8J813c4a4B9t484S5h5z5a8b85141                    ",
"              3121A7h6v5M6i5f5R5A5U5B9N7a4m1c4c4m1a4p4B9t484R5h5z5S51101z0y0                    ",
"              x0w0S7v0j6a8T5A9f5R584U9U5B9p4p4p4u0B9U5U9n1S5g5t0s0r0q0p0                        ",
"            o0w1j5n0m0H3m2V9U3l013b4k0t4A5U9t4t4j0b444V9i0;6h0g0f0e0d0                          ",
"          ;:c0b0a0C:Z0Y0X0W0V0U0T0S0h4R0Q0Q0P0P0P0O0N0M0L0a2K0w4J0                              ",
"        A:I0;7H0A:        G0F0E0D0C0t9B0A0;0r1r1:09080F17060                                    ",
"      A:50l84030                                                                                ",
"    E:207910A:                                                                                  ",
"      K90030                                                                                    ",
"        M8                                                                                      ",
"                                                                                                "};
