/* XPM */
static char *image[] = {
"48 48 407 2",
"   c None",
"00 c #808080",
"10 c #aeaeae",
"20 c #939393",
"30 c #818181",
"40 c #747474",
"50 c #a9a9a9",
"60 c #aaaaaa",
"70 c #989898",
"80 c #a0a0a0",
"90 c #cacac8",
":0 c #cbcbc9",
";0 c #cececc",
"A0 c #9c9c9c",
"B0 c #c9c9c7",
"C0 c #c7c7c5",
"D0 c #757575",
"E0 c #8e8e8e",
"F0 c #7d7d7d",
"G0 c #afafae",
"H0 c #c5c5c3",
"I0 c #cccccc",
"J0 c #c8c8c7",
"K0 c #c8c8c6",
"L0 c #ccccca",
"M0 c #cdcdcb",
"N0 c #c5c5c4",
"O0 c #c3c3c2",
"P0 c #9d9d9c",
"Q0 c #a5a5a4",
"R0 c #aeaead",
"S0 c #bebebd",
"T0 c #d0d0ce",
"U0 c #d1d1cf",
"V0 c #c1c1c1",
"W0 c #b9b9b8",
"X0 c #9a9a99",
"Y0 c #cfcfcd",
"Z0 c #d5d5d3",
"a0 c #b0b0af",
"b0 c #9e9e9e",
"c0 c #d9d9d7",
"d0 c #ababaa",
"e0 c #adadad",
"f0 c #9e9e9d",
"g0 c #989897",
"h0 c #c0c0bf",
"i0 c #c9c9c8",
"j0 c #d4d4d2",
"k0 c #d6d6d4",
"l0 c #909090",
"m0 c #9b9b9a",
"n0 c #babab9",
"o0 c #8f8f8f",
"p0 c #9d9d9d",
"q0 c #c7c7c6",
"r0 c #cccccb",
"s0 c #cfcfce",
"t0 c #d2d2d0",
"u0 c #e2e2e2",
"v0 c #9a9a9a",
"w0 c #919190",
"x0 c #aaaaa9",
"y0 c #b5b5b4",
"z0 c #bfbfbe",
"01 c #d3d3d1",
"11 c #dbdbda",
"21 c #d9d9d9",
"31 c #a6a6a6",
"41 c #838383",
"51 c #8b8b8b",
"61 c #949494",
"71 c #d0d0cf",
"81 c #d3d3d2",
"91 c #d9d9d8",
":1 c #dcdcda",
";1 c #dfdfdd",
"A1 c #e1e1e0",
"B1 c #e2e2e0",
"C1 c #dfdfde",
"D1 c #a3a3a3",
"E1 c #c8c8c8",
"F1 c #7b7b7b",
"G1 c #898989",
"H1 c #d4d4d3",
"I1 c #dadad8",
"J1 c #dddddb",
"K1 c #e0e0de",
"L1 c #e2e2e1",
"M1 c #e5e5e4",
"N1 c #e6e6e4",
"O1 c #e3e3e1",
"P1 c #d6d6d5",
"Q1 c #a7a7a7",
"R1 c #9b9b9b",
"S1 c #979796",
"T1 c #cbcbca",
"U1 c #cececd",
"V1 c #d1d1d0",
"W1 c #d8d8d7",
"X1 c #ececea",
"Y1 c #eaeae8",
"Z1 c #afafaf",
"a1 c #999999",
"b1 c #828282",
"c1 c #969696",
"d1 c #a1a1a1",
"e1 c #b8b8b7",
"f1 c #c4c4c3",
"g1 c #d2d2d1",
"h1 c #dddddc",
"i1 c #e0e0df",
"j1 c #e7e7e5",
"k1 c #e9e9e8",
"l1 c #ebebea",
"m1 c #ededeb",
"n1 c #eeeeec",
"o1 c #ededec",
"p1 c #ebebe9",
"q1 c #e8e8e6",
"r1 c #e1e1df",
"s1 c #dededc",
"t1 c #dbdbd9",
"u1 c #d8d8d6",
"v1 c #2e2e2e",
"w1 c #d1d1d1",
"x1 c #9f9f9f",
"y1 c #878786",
"z1 c #959595",
"02 c #b3b3b2",
"12 c #c6c6c5",
"22 c #d1d0ce",
"32 c #cdc7bd",
"42 c #bdb2a0",
"52 c #a5957c",
"62 c #96825f",
"72 c #8a764b",
"82 c #846d3b",
"92 c #836c33",
":2 c #836d3a",
";2 c #897347",
"A2 c #94805e",
"B2 c #a49479",
"C2 c #c0b4a1",
"D2 c #d9d4c9",
"E2 c #e9e7e3",
"F2 c #e9e9e7",
"G2 c #e3e3e2",
"H2 c #dadad9",
"I2 c #d7d7d6",
"J2 c #646464",
"K2 c #3d3d3d",
"L2 c #acacac",
"M2 c #bebebe",
"N2 c #a4a4a4",
"O2 c #868686",
"P2 c #9f9f9e",
"Q2 c #b1a89b",
"R2 c #79623f",
"S2 c #674713",
"T2 c #77531b",
"U2 c #805f24",
"V2 c #856b2d",
"W2 c #877030",
"X2 c #856c2d",
"Y2 c #836629",
"Z2 c #805f25",
"a2 c #7d5920",
"b2 c #77531c",
"c2 c #684613",
"d2 c #735d37",
"e2 c #bab2a3",
"f2 c #e6e6e5",
"g2 c #d7d7d5",
"h2 c #3e3e3e",
"i2 c #b9b9b9",
"j2 c #bdbdbd",
"k2 c #a8a8a8",
"l2 c #929292",
"m2 c #979797",
"n2 c #bebdba",
"o2 c #705f41",
"p2 c #563c0d",
"q2 c #6e4c16",
"r2 c #7f5f24",
"s2 c #7f5d23",
"t2 c #7d5a21",
"u2 c #7a561e",
"v2 c #75511a",
"w2 c #6f4c16",
"x2 c #684712",
"y2 c #61410e",
"z2 c #5b3d0b",
"03 c #695737",
"13 c #dad8d4",
"23 c #dededd",
"33 c #c7c7c7",
"43 c #707070",
"53 c #c6c6c6",
"63 c #a5a5a5",
"73 c #aaa9a5",
"83 c #4c3d1c",
"93 c #503a11",
":3 c #654510",
";3 c #704e17",
"A3 c #6f4d17",
"B3 c #6d4b15",
"C3 c #6a4813",
"D3 c #664510",
"E3 c #61410d",
"F3 c #583c0c",
"G3 c #543b0f",
"H3 c #513a11",
"I3 c #4a3815",
"J3 c #9e9b94",
"K3 c #d8d8d8",
"L3 c #b0b0b0",
"M3 c #cacac9",
"N3 c #a1a1a0",
"O3 c #999896",
"P3 c #5b513c",
"Q3 c #473615",
"R3 c #4f3a12",
"S3 c #5b3d0a",
"T3 c #5c3d0a",
"U3 c #5a3d0b",
"V3 c #593c0c",
"W3 c #573c0d",
"X3 c #553b0e",
"Y3 c #523b10",
"Z3 c #4f3912",
"a3 c #463513",
"b3 c #51452d",
"c3 c #918e8a",
"d3 c #9c9c9b",
"e3 c #e4e4e2",
"f3 c #e5e5e5",
"g3 c #7f7f7f",
"h3 c #a2a2a1",
"i3 c #a2a19f",
"j3 c #797366",
"k3 c #5b513b",
"l3 c #504329",
"m3 c #47381a",
"n3 c #443312",
"o3 c #4d3911",
"p3 c #4b3711",
"q3 c #473511",
"r3 c #443211",
"s3 c #453617",
"t3 c #4c3f25",
"u3 c #574c36",
"v3 c #6e6757",
"w3 c #9b9995",
"x3 c #a3a3a2",
"y3 c #a0a09f",
"z3 c #c1c1c0",
"04 c #414141",
"14 c #2c2c2c",
"24 c #cbcbcb",
"34 c #b4b4b3",
"44 c #a8a8a7",
"54 c #acacab",
"64 c #b1b1b0",
"74 c #b6b6b5",
"84 c #bababa",
"94 c #bbbbba",
":4 c #b0aeaa",
";4 c #a19e97",
"A4 c #938e84",
"B4 c #8e887d",
"C4 c #9d9992",
"D4 c #aba8a4",
"E4 c #b8b7b6",
"F4 c #b7b7b6",
"G4 c #adadac",
"H4 c #a9a9a8",
"I4 c #b2b2b1",
"J4 c #e4e4e3",
"K4 c #d0d0d0",
"L4 c #303030",
"M4 c #888888",
"N4 c #d7d7d7",
"O4 c #d5d5d4",
"P4 c #cdcdcc",
"Q4 c #bdbdbc",
"R4 c #bbbbbb",
"S4 c #bfbfbf",
"T4 c #c4c4c4",
"U4 c #c9c9c9",
"V4 c #cacaca",
"W4 c #c0c0c0",
"X4 c #bcbcbc",
"Y4 c #bcbcbb",
"Z4 c #c2c2c1",
"a4 c #cfcfcf",
"b4 c #dcdcdb",
"c4 c #dadada",
"d4 c #ababab",
"e4 c #424242",
"f4 c #343434",
"g4 c #333333",
"h4 c #c5c5c5",
"i4 c #cecece",
"j4 c #dbdbdb",
"k4 c #e3e3e3",
"l4 c #e4e4e4",
"m4 c #e6e6e6",
"n4 c #e7e7e7",
"o4 c #eaeae9",
"p4 c #e8e8e7",
"q4 c #dddddd",
"r4 c #d4d4d4",
"s4 c #b1b1b1",
"t4 c #e8e8e8",
"u4 c #515151",
"v4 c #777777",
"w4 c #a2a2a2",
"x4 c #b8b8b8",
"y4 c #c3c3c3",
"z4 c #cdcdcd",
"05 c #d2d2d2",
"15 c #d6d6d6",
"25 c #d3d3d3",
"35 c #d5d5d5",
"45 c #c2c2c2",
"55 c #8c8c8c",
"65 c #575757",
"75 c #e9e9e9",
"85 c #353535",
"95 c #404040",
":5 c #6a6a6a",
";5 c #656565",
"A5 c #4d4d4d",
"B5 c #eaeaea",
"C5 c #363636",
"D5 c #ebebeb",
"E5 c #373737",
"F5 c #3f3f3f",
"G5 c #6f6f6f",
"H5 c #727272",
"I5 c #797979",
"J5 c #7c7c7c",
"K5 c #ececec",
"L5 c #383838",
"M5 c #6d6d6d",
"N5 c #717171",
"O5 c #737373",
"P5 c #767676",
"Q5 c #787878",
"R5 c #393939",
"S5 c #535353",
"T5 c #ededed",
"U5 c #eeeeee",
"V5 c #3a3a3a",
"W5 c #636363",
"X5 c #efefef",
"Y5 c #3b3b3b",
"Z5 c #565656",
"a5 c #f0f0f0",
"b5 c #525252",
"c5 c #555555",
"d5 c #595959",
"e5 c #5c5c5c",
"f5 c #5f5f5f",
"g5 c #696969",
"h5 c #6c6c6c",
"i5 c #f1f1f1",
"j5 c #3c3c3c",
"k5 c #585858",
"l5 c #5a5a5a",
"m5 c #5d5d5d",
"n5 c #606060",
"o5 c #626262",
"p5 c #666666",
"q5 c #686868",
"r5 c #6b6b6b",
"s5 c #b2b2b2",
"t5 c #b7b7b7",
"u5 c #434343",
"v5 c #444444",
"w5 c #454545",
"x5 c #464646",
"y5 c #474747",
"z5 c #484848",
"06 c #494949",
"16 c #4a4a4a",
"26 c #4b4b4b",
"36 c #4c4c4c",
"46 c #4e4e4e",
"56 c #4f4f4f",
"66 c #505050",
"76 c #545454",
"86 c #f2f2f2",
"96 c #f3f3f3",
":6 c #f4f4f4",
";6 c #f5f5f5",
"A6 c #f6f6f6",
"B6 c #f7f7f7",
"C6 c #f8f8f8",
"D6 c #f9f9f9",
"E6 c #fafafa",
"F6 c #fbfbfb",
"G6 c #b3b3b3",
"H6 c #b4b4b4",
"I6 c #b6b6b6",
"J6 c #b5b5b5",
"                                                    J6I6I6I6I6J6I6I6J6J6J6J6J6J6H6H6J6J6H6G6    ",
"                                                    H6F6E6E6E6D6C6C6C6B6A6A6A6;6:6:6:69686H6    ",
"                                                    H6D6766656463636261606z5y5x5w5v5u55686H6    ",
"                            J6I6I6I6I6J6I6I6J6J6J6J6J6t5s5G6G6G6G6s5r5q5p5o5n5m5l5k576j5i5H6    ",
"                            H6F6E6E6E6D6C6C6C6B6A6A6A6;6:6:6:69686G6h5g5p5o5f5e5d5c5b5j5a5H6    ",
"                            H6D6766656463636261606z5y5x5w5v5u55686G6g5p5o5f5e5d5Z5b556Y5X5H6    ",
"    J6I6I6I6I6J6I6I6J6J6J6J6J6t5s5G6G6G6G6s5r5q5p5o5n5m5l5k576j5i5G6p5W5f5e5d5Z5b55636V5U5H6    ",
"    H6F6E6E6E6D6C6C6C6B6A6A6A6;6:6:6:69686G6h5g5p5o5f5e5d5c5b5j5a5G6W5f5e5d5Z5b5563606V5T5H6    ",
"    H6D6766656463636261606z5y5x5w5v5u55686G6g5p5o5f5e5d5Z5b556Y5X5G6f5e5d5Z5S5563606x5R5T5H6    ",
"    H6B6v5Q5P5O5N5M5r5q5p5o5n5m5l5k576j5i5G6p5W5f5e5d5Z5b55636V5U5s5e5d5Z5S5563606x5u5L5K5H6    ",
"    H6B6x5J5I5P5H5G5h5g5p5o5f5e5d5c5b5j5a5G6W5f5e5d5Z5b5563606V5T5s5d5Z5S5563606x5u5F5E5D5H6    ",
"    H6;6w5I5P5O5G5h5g5p5o5f5e5d5Z5b556Y5X5G6f5e5d5Z5S5563606x5R5T5s5Z5S5663606x5u5F5j5C5B5H6    ",
"    H696v5P5O5G5h5g5p5W5f5e5d5Z5b556A5j5U5H6;5:5p5l5b55626y5u5L5K5s5S5663606x5u595j5R58575H6    ",
"    H686v5O5G5h5g5p5W5f5e5d565Z5h555s545352515153505z4y4x4w4v4u4D5s5663606x5u595j5R5C585t4H6    ",
"    H6a5u5G5h5g5p5W5f5e5l5G5s4r4q4p4o4t4n4m4l4k4k4l4l4l4l4k4j4i4h4x4e516x5u595j5R5C5g4f4t4H6    ",
"    H6X5e4h5g5p5W5f5e5p5d4c4n4b4a4Z4Y4X4W4h4V4a4i4U4T4S4R4Q4Z4P4O4N4y4M42695j5R5C5g4L4g4n4H6    ",
"    H6U5e4g5p5W5n5e5q5K4J425I4H4G4I4F4R4E4D4C4B4A4;4:49484746454443424z4d4v5R5C5g4L414g4m4H6    ",
"    H6T504p5W5n5e5d5s5k4z3y3x3w3v3u3t3s3r3q3p3o3o3p3q3n3m3l3k3j3i3h3y3W445g3E5C5C5858585f3H6    ",
"    H6K595W5n5e5d5M5K4e3d3c3b3a3Z3Y3X3W3V3U3T3T3T3S3U3V3W3X3Y3R3Q3P3O3N3M3L3r4K3K31515c4l4H6    ",
"    H6D595n5m5d5Z5H5V4p4J3I3H3G3F3T3E3D3C3B3A3;3;3A3B3C3:3E3T3F3G3938373t563S453S4R4R4a4q4G6    ",
"    H675F5m5d5Z5S54333231303W3z2y2x2w2v2u2t2s2r2r2s2t2u2v2q2x2E3z2p2o2n2m2l2k23353j2i2x484L3    ",
"    H6t4h2d5Z5S566M5h4g223f2e2d2c2A3b2a2Z2Y2X2W2W2V2Y2U2a2T2w2S2R2Q2X4P2O255N2X445T4M2x4S4L2    ",
"    H6n4K2Z5S566A5J2y4I2H223G2F2E2D2C2B2A2;2:29292827262524232221202w4z1y1M4x1s4y4a4w1T4j2x4    ",
"    H6m4v1K2j5Y5Y516y4u1t1s1r1e3q1p1o1n1m1l1o4k1j1G2i1h1I2g1P4f1e1L2d1c1y1b1a1Z1J6I6S415y4j2    ",
"    H6X5K3K3K3K3K3K3U4u1t1s1r1e3j1Y1m1X1F2f2e3r1s1t1W1O4V1U1T1Z4t5G4h3S1M4J5R1      84K333S4Q1  ",
"    H6a5X5X5U5T5K5K5V4P1H2h1i1O1N1q1Y1Y1q1M1L1K1J1I1g2H1V1U1T1Z4F4L2h3S1G1F1x1      x4c4E1M2D1  ",
"    H6X5X5U5T5K5K5D5K4V1I1b4C1B1e3N1j1j1N1e3A1;1:191P18171P4M3z3I654N361514131G6  I6h421h4R4    ",
"    H6U5U5T5K5D5D5B52124W111s1K1B1e3J4J4G2B1K1h1t1W1O40171P4M3z0y0x0x1w0M4v0H6M233351533S4s5    ",
"    H6U5T5K5B5B575t4u012I291:1s1K1r1B1B1r1K1s1:191g2H1t0s0r0q0Q4s544p0o041J6h4U4V453W4S4i2      ",
"    G6H6J6J6H6H6J6J6H6W4U1I2I1:1h123;1;123h1:1I1u1O48171U1T1y4n0Z163m0z1l0J6E125w133W4H6D1      ",
"                  84M2T4y4O4I291H211:1:111t191u1k0j0V1s0r0i0h07454h3g0f0X4M2j2j2x4e031          ",
"            M2h4R4I6L3d0X424O4g2u1c09191c0W1g2O4j0t0s0P4T1f194s444b0v0N3a0y084j2T4j2            ",
"        S4h4R4340202G63474X4s081H1Z0O4O4O4H181g171Y0r0M312Q4H6d4w4X0b0y0W0W0W0n084W4h4W4        ",
"    S4h4V0Q4Y4X4X4Y4Y4Y4X494M2V171V1V1V1V1U0T0U1P4T1i012S074R0Q0x1P002z3z3z3Z4O0O0f1N0125345    ",
"  45h4N0h4h412N0N0T4N0N0f1y4x4Q471U1M0L0T1T1M3i0K012Z4Y4H6G44463x1H412q0J0i0M3T1r0P4U1U1s0i0T4  ",
"V0E1U1s0s0s0s0U1U1P4I0V4M3M3i0J6i224P4M3H0O0Z4z3h094y064G0R0x0f0Q1T1r0P4P4s0V181H1I2W1W1W1W1r033",
"T4O4W1W1W191W1I2P1O4g1g1V1s0U1r0I5G184M3M3J053Z4j2Q484W0G6d1J5v4P4s071V1K4t0O4W111b4h1232323H233",
"53j423232323h111H2I2O4H18181V1s0f1H5n5F0m2k2H6S4R4e0x1E0D0Z5F1i071w1g181V171H1W111h123C1C1C1b433",
"X425C1C1C1C123b4H2I2Z0t0Z0O4O4O4250553l0W5u446u46636S5;5c1M381r4O4O4O405U1T0k0c0J1;1K1r1r1A1H1T4",
"  h491r1A1A1i123h191P1g171V1O4I2I2I2W1W1N4W1P1s0V1I29191K3W1W1I2I281U1r0s081I2b423i1A1L1L1H253  ",
"    T4P423L1A1i123b4c0k0U0Y0M0P4U1w1O4I2W121H2c4c4c421W1I2H171I0U4M3T1U1g1I2:1K1r1O1e3C1z4T4    ",
"      p0T4i4C1O1r1K123H2I28171U1r0V4M3i0q05333i0i0q012q0C0K0B0M3L0Y0t0k0c0J1K1B1G2C1U1T4A0      ",
"          d153P491h1B1K1s1t1W1k001U0s0;0L0:0:09090B090:0r0U1a4V1H1I291b4C1L1;191z45380          ",
"              a1s545h4V4H1H2;1s1:1H291W1P1O4O4H1Z0Z0k0g2u1c0I1:1s1;1H2O4U4h445s470              ",
"                      l060M2T4T4h412J0T1U1V181Z0Z081V1U1T133N0T4T4T4j250l0                      ",
"                              40305520a1x1Q110J6J610Q1x1a1l25100H5                              ",
"                                                                                                ",
"                                                                                                "};
