/* XPM */
static char *image[] = {
"48 48 138 2",
"   c None",
"00 c #333333",
"10 c #343434",
"20 c #353535",
"30 c #b3b3b3",
"40 c #363636",
"50 c #b4b4b4",
"60 c #373737",
"70 c #b6b6b6",
"80 c #b5b5b5",
"90 c #383838",
":0 c #393939",
";0 c #b7b7b7",
"A0 c #3a3a3a",
"B0 c #b8b8b8",
"C0 c #3b3b3b",
"D0 c #bababa",
"E0 c #b9b9b9",
"F0 c #3c3c3c",
"G0 c #bbbbbb",
"H0 c #3d3d3d",
"I0 c #bcbcbc",
"J0 c #3e3e3e",
"K0 c #bdbdbd",
"L0 c #3f3f3f",
"M0 c #bfbfbf",
"N0 c #bebebe",
"O0 c #404040",
"P0 c #c0c0c0",
"Q0 c #414141",
"R0 c #e5e5e5",
"S0 c #c1c1c1",
"T0 c #424242",
"U0 c #c2c2c2",
"V0 c #434343",
"W0 c #c4c4c4",
"X0 c #c3c3c3",
"Y0 c #444444",
"Z0 c #454545",
"a0 c #c5c5c5",
"b0 c #464646",
"c0 c #474747",
"d0 c #e9e9e9",
"e0 c #484848",
"f0 c #c9c9c9",
"g0 c #494949",
"h0 c #4a4a4a",
"i0 c #4b4b4b",
"j0 c #cccccc",
"k0 c #4c4c4c",
"l0 c #4d4d4d",
"m0 c #cfcfcf",
"n0 c #4e4e4e",
"o0 c #f0f0f0",
"p0 c #4f4f4f",
"q0 c #f1f1f1",
"r0 c #d1d1d1",
"s0 c #505050",
"t0 c #c6c6c6",
"u0 c #f2f2f2",
"v0 c #525252",
"w0 c #c7c7c7",
"x0 c #d4d4d4",
"y0 c #535353",
"z0 c #676767",
"01 c #c8c8c8",
"11 c #f3f3f3",
"21 c #545454",
"31 c #686868",
"41 c #cacaca",
"51 c #d7d7d7",
"61 c #e6e6e6",
"71 c #f4f4f4",
"81 c #555555",
"91 c #6a6a6a",
":1 c #cbcbcb",
";1 c #f5f5f5",
"A1 c #565656",
"B1 c #6b6b6b",
"C1 c #cdcdcd",
"D1 c #e7e7e7",
"E1 c #f6f6f6",
"F1 c #575757",
"G1 c #6c6c6c",
"H1 c #cecece",
"I1 c #e8e8e8",
"J1 c #585858",
"K1 c #6e6e6e",
"L1 c #d0d0d0",
"M1 c #dcdcdc",
"N1 c #eaeaea",
"O1 c #f7f7f7",
"P1 c #595959",
"Q1 c #6f6f6f",
"R1 c #d2d2d2",
"S1 c #f8f8f8",
"T1 c #dddddd",
"U1 c #5a5a5a",
"V1 c #717171",
"W1 c #d3d3d3",
"X1 c #ebebeb",
"Y1 c #dedede",
"Z1 c #5b5b5b",
"a1 c #5d5d5d",
"b1 c #727272",
"c1 c #d5d5d5",
"d1 c #ececec",
"e1 c #f9f9f9",
"f1 c #dfdfdf",
"g1 c #5c5c5c",
"h1 c #757575",
"i1 c #d6d6d6",
"j1 c #e1e1e1",
"k1 c #ededed",
"l1 c #e0e0e0",
"m1 c #5e5e5e",
"n1 c #777777",
"o1 c #d8d8d8",
"p1 c #eeeeee",
"q1 c #fafafa",
"r1 c #e2e2e2",
"s1 c #5f5f5f",
"t1 c #787878",
"u1 c #d9d9d9",
"v1 c #efefef",
"w1 c #fbfbfb",
"x1 c #606060",
"y1 c #7a7a7a",
"z1 c #dbdbdb",
"02 c #e4e4e4",
"12 c #616161",
"22 c #7b7b7b",
"32 c #dadada",
"42 c #e3e3e3",
"52 c #626262",
"62 c #636363",
"72 c #646464",
"82 c #656565",
"            8282828282828282828282828282828282828282              82828282828282828282          ",
"          7272727272727272727272727272727272727272727272        727272727272727272727272        ",
"        62626262626262626262626262626262626262626262626262      626262626262626262626262        ",
"        5252524242424242424242424242424242424242423222525252      5252525252525252525252        ",
"        12121202020202020202020202020202020202020202z1y1121212      12121212121212121212        ",
"        x1x1x14242w1w1w1w1w1w1w1w1w1w1w1w1w1w1w1w1v142u1t1x1x1x1      x1x1x1x1x1x1x1x1x1        ",
"        s1s1s1r1r1q1q1q1q1q1q1q1q1q1q1q1q1q1q1q1q1q1p1r1o1n1s1s1s1      s1s1s1s1s1s1s1s1        ",
"        m1m1m1l1l1q1q1q1q1q1q1q1q1q1q1q1q1q1q1q1q1q1q1k1j1i1h1m1m1m1      m1m1m1m1m1m1m1        ",
"        g1g1g1f1f1e1e1e1e1e1e1e1e1e1e1e1e1e1e1e1e1e1e1e1d1f1c1b1g1g1g1      a1a1a1a1a1a1        ",
"        Z1Z1Z1Y1Y1e1e1e1e1e1e1e1e1e1e1e1e1e1e1e1e1e1e1e1e1X1Y1W1V1Z1Z1Z1      g1g1g1g1g1        ",
"        U1U1U1T1T1S1S1S1S1S1S1S1S1S1S1S1S1S1S1S1S1S1S1S1S1S1X1T1R1Q1U1U1U1      Z1Z1Z1Z1        ",
"        P1P1P1z1z1O1O1O1O1O1O1O1O1O1O1O1O1O1O1O1O1O1O1O1O1O1O1N1M1L1K1P1P1P1      U1U1          ",
"        J1J1J13232O1O1O1O1O1O1O1O1O1O1O1O1O1O1O1O1O1O1O1O1O1O1O1I132H1G1J1J1J1                  ",
"        F1F1F1u1u1E1E1E1E1E1E1E1E1E1E1E1E1E1E1E1E1E1E1E1E1E1E1E1E1D1u1C1B1F1F1F1                ",
"        A1A1A1o1o1;1;1;1;1;1;1;1;1;1;1;1;1;1;1;1;1;1;1;1;1;1;1;1;1;1D1o1:191A1A1A1              ",
"        818181i1i1717171717171717171717171717171717171717171717171717161514131818181            ",
"        212121c1c111111111111111111111111111111111111111111111111111111102c101z0212121          ",
"        y0y0y0x0x01111111111111111111111111111111111111111111111111111111102x0w082y0y0          ",
"        v0v0v0W1W1u0u0u0u0u0u0u0u0u0u0u0u0u0u0u0u0u0u0u0u0u0u0u0u0u0u0u0u0u042W1t0v0v0v0        ",
"        s0s0s0r0r0q0q0q0q0q0q0q0q0q0q0q0q0q0q0q0q0q0q0q0q0q0q0q0q0q0q0q0q0q0q0R1R1s0s0s0        ",
"        p0p0p0L1L1o0o0o0o0o0o0o0o0o0o0o0o0o0o0o0o0o0o0o0o0o0o0o0o0o0o0o0o0o0o0L1L1p0p0p0        ",
"        n0n0n0m0m0v1v1v1v1v1v1v1v1v1v1v1v1v1v1v1v1v1v1v1v1v1v1v1v1v1v1v1v1v1v1m0m0n0n0n0        ",
"        l0l0l0C1C1p1p1p1p1p1p1p1p1p1p1p1p1p1p1p1p1p1p1p1p1p1p1p1p1p1p1p1p1p1p1H1H1l0l0l0        ",
"        k0k0k0j0j0k1k1k1k1k1k1k1k1k1k1k1k1k1k1k1k1k1k1k1k1k1k1k1k1k1k1k1k1k1k1j0j0k0k0k0        ",
"        i0i0i0:1:1d1d1d1d1d1d1d1d1d1d1d1d1d1d1d1d1d1d1d1d1d1d1d1d1d1d1d1d1d1d1:1:1i0i0i0        ",
"        h0h0h04141X1X1X1X1X1X1X1X1X1X1X1X1X1X1X1X1X1X1X1X1X1X1X1X1X1X1X1X1X1X14141h0h0h0        ",
"        g0g0g00101N1N1N1N1N1N1N1N1N1N1N1N1N1N1N1N1N1N1N1N1N1N1N1N1N1N1N1N1N1N1f0f0g0g0g0        ",
"        e0e0e0w0w0d0d0d0d0d0d0d0d0d0d0d0d0d0d0d0d0d0d0d0d0d0d0d0d0d0d0d0d0d0d0w0w0e0e0e0        ",
"        c0c0c0t0t0I1I1I1I1I1I1I1I1I1I1I1I1I1I1I1I1I1I1I1I1I1I1I1I1I1I1I1I1I1I1t0t0c0c0c0        ",
"        b0b0b0a0a0D1D1D1D1D1D1D1D1D1D1D1D1D1D1D1D1D1D1D1D1D1D1D1D1D1D1D1D1D1D1a0a0Z0Z0Z0        ",
"        Y0Y0Y0X0X06161616161616161616161D1D1D1D1D1D1D1D1D1D1D1D1D1D1D1D1D1D1D1W0W0Y0Y0Y0        ",
"        V0V0V0U0U0616161616161616161616161616161616161616161616161616161616161U0U0V0V0V0        ",
"        T0T0T0S0S0R0R0R0R0R0R0R0R0R0R0R0R0R0R0R0R0R0R0R0R0R0R0R0R0R0R0R0R0R0R0S0S0T0T0T0        ",
"        Q0Q0Q0P0P0R0R0R0R0R0R0R0R0R0R0R0R0R0R0R0R0R0R0R0R0R0R0R0R0R0R0R0R0R0R0P0P0Q0Q0Q0        ",
"        O0O0O0N0N00202020202020202020202020202020202020202R0R0R0R0R0R0R0R0R0R0M0M0O0O0O0        ",
"        L0L0L0K0K0020202020202020202020202020202020202020202020202020202020202K0K0L0L0L0        ",
"        J0J0J0I0I0424242424242424242424242424242424242424242424242424242424242I0I0J0J0J0        ",
"        H0H0H0G0G0424242424242424242424242424242424242424242424242424242424242G0G0H0H0H0        ",
"        F0F0F0E0E0r1r1r1r1r1r1r1r1r1r1r1r1r1r1r1r1r1r1r1r1r1r1r1r1r1r1r1r1r142D0D0F0F0F0        ",
"        C0C0C0B0B0r1r1r1r1r1r1r1r1r1r1r1r1r1r1r1r1r1r1r1r1r1r1r1r1r1r1r1r1r1r1B0B0C0C0C0        ",
"        A0A0A0;0;0j1j1j1j1j1j1j1j1j1j1j1j1j1j1j1j1j1j1j1j1j1j1j1j1j1j1j1j1j1j1;0;0:0:0:0        ",
"        9090908080j1j1j1j1j1j1j1j1j1j1j1j1j1j1j1j1j1j1j1j1j1j1j1j1j1j1j1j1j1j17070909090        ",
"        6060605050l1l1l1l1l1l1l1l1l1l1l1l1l1l1l1l1l1l1l1l1l1l1l1l1l1l1l1l1l1l15050606060        ",
"        40404030303030303030303030303030303030303030303030303030303030303030303030404040        ",
"        20202030303030303030303030303030303030303030303030303030303030303030303030202020        ",
"        10101010101010101010101010101010101010101010101010101010101010101010101010101010        ",
"          0000000000000000000000000000000000000000000000000000000000000000000000000000          ",
"            000000000000000000000000000000000000000000000000000000000000000000000000            "};
