/* XPM */
static char *image[] = {
"48 48 205 2",
"   c None",
"00 c #242424",
"10 c #323232",
"20 c #373737",
"30 c #383838",
"40 c #292929",
"50 c #222222",
"60 c #191919",
"70 c #3a3a3a",
"80 c #343434",
"90 c #333333",
":0 c #2f2f2f",
";0 c #2a2a2a",
"A0 c #272727",
"B0 c #3f3f3f",
"C0 c #313131",
"D0 c #2e2e2e",
"E0 c #424242",
"F0 c #353535",
"G0 c #3c3c3c",
"H0 c #454545",
"I0 c #474747",
"J0 c #4b4b4b",
"K0 c #f0f0f0",
"L0 c #4c4c4c",
"M0 c #e5e5e5",
"N0 c #8e8e8e",
"O0 c #909090",
"P0 c #e9e9e9",
"Q0 c #d6d6d6",
"R0 c #888888",
"S0 c #848484",
"T0 c #787878",
"U0 c #797979",
"V0 c #7d7d7d",
"W0 c #646464",
"X0 c #686868",
"Y0 c #626262",
"Z0 c #c3c3c3",
"a0 c #5c5c5c",
"b0 c #727272",
"c0 c #c6c6c6",
"d0 c #606060",
"e0 c #a8a8a8",
"f0 c #5a5a5a",
"g0 c #595959",
"h0 c #767676",
"i0 c #515151",
"j0 c #585858",
"k0 c #818181",
"l0 c #cdcdcd",
"m0 c #676767",
"n0 c #545454",
"o0 c #6e6e6e",
"p0 c #aeaeae",
"q0 c #bbbbbb",
"r0 c #969696",
"s0 c #4e4e4e",
"t0 c #5b5b5b",
"u0 c #505050",
"v0 c #4f4f4f",
"w0 c #b2b2b2",
"x0 c #b6b6b6",
"y0 c #636363",
"z0 c #494949",
"01 c #484848",
"11 c #535353",
"21 c #5f5f5f",
"31 c #5e5e5e",
"41 c #575757",
"51 c #565656",
"61 c #868686",
"71 c #bcbcbc",
"81 c #a5a5a5",
"91 c #4d4d4d",
":1 c #404040",
";1 c #3e3e3e",
"A1 c #434343",
"B1 c #464646",
"C1 c #444444",
"D1 c #363636",
"E1 c #5d5d5d",
"F1 c #c4c4c4",
"G1 c #bfbfbf",
"H1 c #d9d9d9",
"I1 c #555555",
"J1 c #414141",
"K1 c #3b3b3b",
"L1 c #393939",
"M1 c #3d3d3d",
"N1 c #1f1f1f",
"O1 c #bebebe",
"P1 c #b5b5b5",
"Q1 c #aaaaaa",
"R1 c #c2c2c2",
"S1 c #c5c5c5",
"T1 c #a7a7a7",
"U1 c #a2a2a2",
"V1 c #696969",
"W1 c #4a4a4a",
"X1 c #b4b4b4",
"Y1 c #c8c8c8",
"Z1 c #7a7a7a",
"a1 c #9f9f9f",
"b1 c #8c8c8c",
"c1 c #525252",
"d1 c #b1b1b1",
"e1 c #ababab",
"f1 c #989898",
"g1 c #9e9e9e",
"h1 c #d4d4d4",
"i1 c #d1d1d1",
"j1 c #929292",
"k1 c #6a6a6a",
"l1 c #828282",
"m1 c #959595",
"n1 c #919191",
"o1 c #8d8d8d",
"p1 c #898989",
"q1 c #858585",
"r1 c #747474",
"s1 c #acacac",
"t1 c #9b9b9b",
"u1 c #d5d5d5",
"v1 c #eeeeee",
"w1 c #6b6b6b",
"x1 c #d2d2d2",
"y1 c #8f8f8f",
"z1 c #838383",
"02 c #777777",
"12 c #616161",
"22 c #a3a3a3",
"32 c #a0a0a0",
"42 c #b3b3b3",
"52 c #d8d8d8",
"62 c #c7c7c7",
"72 c #6c6c6c",
"82 c #b7b7b7",
"92 c #a9a9a9",
":2 c #737373",
";2 c #656565",
"A2 c #878787",
"B2 c #9c9c9c",
"C2 c #9a9a9a",
"D2 c #979797",
"E2 c #e7e7e7",
"F2 c #e3e3e3",
"G2 c #dedede",
"H2 c #dcdcdc",
"I2 c #7e7e7e",
"J2 c #bababa",
"K2 c #cecece",
"L2 c #a4a4a4",
"M2 c #808080",
"N2 c #666666",
"O2 c #757575",
"P2 c #939393",
"Q2 c #999999",
"R2 c #b8b8b8",
"S2 c #dbdbdb",
"T2 c #f5f5f5",
"U2 c #e8e8e8",
"V2 c #e4e4e4",
"W2 c #dfdfdf",
"X2 c #d3d3d3",
"Y2 c #b9b9b9",
"Z2 c #6d6d6d",
"a2 c #7f7f7f",
"b2 c #a6a6a6",
"c2 c #bdbdbd",
"d2 c #cbcbcb",
"e2 c #d0d0d0",
"f2 c #cccccc",
"g2 c #cacaca",
"h2 c #c9c9c9",
"i2 c #f7f7f7",
"j2 c #f6f6f6",
"k2 c #f4f4f4",
"l2 c #f1f1f1",
"m2 c #efefef",
"n2 c #ececec",
"o2 c #ebebeb",
"p2 c #ededed",
"q2 c #adadad",
"r2 c #6f6f6f",
"s2 c #7b7b7b",
"t2 c #8a8a8a",
"u2 c #949494",
"v2 c #a1a1a1",
"w2 c #b0b0b0",
"x2 c #c1c1c1",
"y2 c #dadada",
"z2 c #e0e0e0",
"03 c #e2e2e2",
"13 c #e1e1e1",
"23 c #dddddd",
"33 c #d7d7d7",
"43 c #cfcfcf",
"53 c #c0c0c0",
"63 c #afafaf",
"73 c #9d9d9d",
"83 c #8b8b8b",
"93 c #7c7c7c",
":3 c #707070",
";3 c #717171",
"                                                                                                ",
"                                                                                                ",
"                          ;3;3;3;3;3;3;3;3;3:3;3;3;3                                            ",
"            :3:3;39383736353433323131303z2y243x2w2v2u2t2s2:3;3                                  ",
"              r2q203p2o2o2n2p2m2l2k2j2i2j2l2y2h2g2f2e2e2d2c2b2a2:3                              ",
"                Z263Y2X2W2V2U2p2l2T2T2S2R2Q2P2P2P2P2P2O2N2M2L2K2J2I2Z2                          ",
"                  :3V2H2G2F2E2o2m23373P2P2P2P2D2C2B2A2;2Z2:3:2s292y282Z2                        ",
"                7262o252S2W2F21342P2P2P2P2P2C23222B212r2:202s2M2z1y1K2x102                      ",
"              w1q2v1X2u152S24373u2P2P2P2P2t12292s1;2w1r1s2M2q1p1o1n1m1x2z2l1                    ",
"            k1j1m2i1K2i1h1K2g1f1D2D2m1u2Q222e1d1D2c1r1s2l1A2b1j1D2t1a1v2J2V2Z1                  ",
"            Z1o2i1Y1d2K2d2L2B2t1t1C2Q2C222s1X1J2W1V1M2o1C273g1a1a1U1T1e1q2S113r1                ",
"          V1F2h1R1S16262Q132a1a1g173B222s1P1O1j1N1M1L1K1J1I1w1l122Y2d1e1s1Q1h2H1V1              ",
"        ;292W2c2G1R1F142L22222U1v232v2e1X1O1d2E1D1C1B1A1;1;1:1J1A191q1s1e181U1X2s1;2            ",
"        V103R1J271O1O192T1T1b281b2B26142J2S1h251413121313111B1B101z0W1W102v2g1L2G2O2            ",
"      y08133x0R2J271w0e1e1Q192s1v2y0E1C2x2e2u2v0      u0c1;2k1t091s0v0v0v0t0t2r0R253y0          ",
"      ;2H2q0X1x0828263p0p0q2w0b2E1u0u0o0c233t0            u0n072m011n0n0I1n0n002j1l0k0          ",
"      f1x1w0w042P1X1w0w0d142p0j0      u0r0R2i0                I1h072g0g0f0g0g0g0a2e1e0d0        ",
"    21J2c0P1x0x0x0x0P1P1X1R1b0          41Z2                    a0I2o031213131E1d0t2Z0Y0        ",
"    31d2O1Y2Y2Y2Y2Y2Y2R253Q1g0            a0                      X0A2y0W0y0y0Y0d0V1w0V0        ",
"    V1K2q071717171717171l0m0                                      W0t2r1V1X0X0m0;2y0P2C2E1      ",
"    z1S1G1G153535353G1Z053Y0                                        93o1o0Z2Z2w1V1m0I2a1E1      ",
"    u2J2R1Z0Z0Z0Z0Z0Z0d281m0                                        O2B2:2:2b0:3o0w1:2a1t0      ",
"    n1P1S1c0c0c0c0c0c0h161                                          U081T0T0h0O2b0r2o073g0      ",
"    b1d1Y1h2g2g2g2g2h2H1k0                                          s2p0V0V0s2U0h0:2r2D2a0      ",
"    A2s1f2f2l0l0l0l0l0S2p1                                          k0P1l1k0M2V0Z1h0b0j1t0      ",
"    I2v2h2e2e2e2e2e2e2G2m1                                          D2p0A261S0k0I2U002b141      ",
"    X022x0X2h1h1h1h1X2W2Q1                                        p1q2L2b183R0S0M29393a241      ",
"    I122v2Q033333333Q0S25261                                      o153f1n1y183A2l1V0I2:251      ",
"    c1f1f1d2y2S2S2y2y2H1P0C2                      y1            O0p0Y2O0m1n183A2l1V0I2m0        ",
"    i0Z1Q222y2G2G2G223H2V2u1j1                  P292P2          t1Y1P2N0O0N06161l1V093j0        ",
"      51Q2D242131313z2W2W2n2f2u2                P2M071P2      P2R1b2A2p18361a2k0M2s2r2c1        ",
"      v0S0f1D2Y1M0V2F20313z2v1F1u2              e103V2s1P2  r0R1Y2M2z1q161Z1U0Z193U0E1c1        ",
"        11Q2f1Q2g2U2E2M0V20303m2M0w2P2        P2f292l1W2g1C262q2Z193I2M293r2:2O2h0b0s0          ",
"        L061f1f1r062E2U2E2M003z2V2K0P0S1P1L2D2f1V2r1E1f123i1g1;3O202Z1s2w1V1Z2r2;321u0          ",
"          91C2f1f1r0x2E2E2E2V203W2H203U2o2W292430351t021N2O2k1o0;3:2O2o0d0W0m0k1w191            ",
"            I1f1f1D2m181x1o2G2F203G2S233h143m1V2E1n0j0a0d0y0m0k172o0o0t0a021Y0;251J0            ",
"            01y0Q2f1r0u2j1m1c2x1H152e2x2w2t2R1b091i0I1g0a021y0;2X0V151n0j0t021f0W1              ",
"              I0;3f1r0P2n1y1b1t2A2S0l1a2V0N073B1W1s0i0I1j0t03112y01191i0I141g001                ",
"                B1N2m1P2n1N0b1p1A2S0l1a29363:1A1I0W1s0i0I141f0a0u001J0v0c1n0z0                  ",
"                  H0v0A2O0N083p161S0k0a2Q2B1G0:1A1I0W191u0111101H0I0W191v0J0H0                  ",
"                      H07283t2A2q1z1M2S0t0F0L1G0:1A1B1z0L0z0A1A1H0B1z0J091C1                    ",
"                        E0B1:261S0l1a2E1D0C0F0L1G0B0E0A1A1E0E0A1C1B1I0z0g0I0M1                  ",
"                            M1B1E1r1E1A0;0:090D1L1M1B0:1J1J1E0A1A1H0B1I001c1J180                ",
"                                :0G0J1I001B1:1G0G0G0M1;1B0:1;1;1G0K170K1K1M1B0:1                ",
"                                      605040:08070;1G0K1703020D1F010D0;000                      ",
"                                                                                                ",
"                                                                                                ",
"                                                                                                "};
